<?xml version="1.0" encoding="UTF-8"?> <svg xmlns="http://www.w3.org/2000/svg" width="44" height="44" viewBox="0 0 44 44" fill="none"><path d="M0 4.4C0 1.96995 1.96995 0 4.4 0H39.6C42.0301 0 44 1.96995 44 4.4V39.6C44 42.0301 42.0301 44 39.6 44H4.4C1.96995 44 0 42.0301 0 39.6V4.4Z" fill="#C8FBE1"></path><g clip-path="url(#clip0_4010_30786)"><path d="M35.5 36H8.5L8 35.5V8.5L8.5 8H35.5L36 8.5V35.5L35.5 36ZM9 35H35V9H9V35Z" fill="#003311"></path><path d="M25 8.5H19V17H25V8.5Z" fill="white"></path><path d="M25.5 17.5H18.5V8H25.5V17.5ZM19.5 16.5H24.5V9H19.5V16.5Z" fill="#003311"></path><path d="M30 23.5H29V33.5H30V23.5Z" fill="#003311"></path><path d="M29.5005 23.5L26.6055 28.5H32.3955L29.5005 23.5Z" fill="white"></path><path d="M32.3969 29H26.6069L26.1719 28.25L29.0669 23.25H29.9319L32.8269 28.25L32.3919 29H32.3969ZM27.4719 28H31.5269L29.4969 24.5L27.4669 28H27.4719Z" fill="#003311"></path></g><defs><clipPath id="clip0_4010_30786"><rect width="32" height="32" fill="white" transform="translate(6 6)"></rect></clipPath></defs></svg> 